<svg xmlns="http://www.w3.org/2000/svg" viewBox="0 0 400 400" fill="none" shape-rendering="auto"><metadata xmlns:rdf="http://www.w3.org/1999/02/22-rdf-syntax-ns#" xmlns:xsi="http://www.w3.org/2001/XMLSchema-instance" xmlns:dc="http://purl.org/dc/elements/1.1/" xmlns:dcterms="http://purl.org/dc/terms/"><rdf:RDF><rdf:Description><dc:title>Adventurer Neutral</dc:title><dc:creator>Lisa Wischofsky</dc:creator><dc:source xsi:type="dcterms:URI">https://www.figma.com/community/file/1184595184137881796</dc:source><dcterms:license xsi:type="dcterms:URI">https://creativecommons.org/licenses/by/4.0/</dcterms:license><dc:rights>Remix of „Adventurer Neutral” (https://www.figma.com/community/file/1184595184137881796) by „Lisa Wischofsky”, licensed under „CC BY 4.0” (https://creativecommons.org/licenses/by/4.0/)</dc:rights></rdf:Description></rdf:RDF></metadata><mask id="viewboxMask"><rect width="400" height="400" rx="0" ry="0" x="0" y="0" fill="#fff" /></mask><g mask="url(#viewboxMask)"><rect fill="#9e5622" width="400" height="400" x="0" y="0" /><g transform="translate(-279 -322)"><path d="M506.03 461.12c5.5-1.16 11.66 2.44 16.92 3.98 22.15 7.08 45.9 9.46 69.06 7.74 6.23-.6 12.8-2.4 19.04-2 6.2.65 10.4 6.06 10.95 12.05.76 10.8-.8 22-5.08 32a65.62 65.62 0 0 1-30.44 32.6c-21.35 11.07-48.35 9-67.75-5.22-14.69-10.5-24.7-27.34-26.67-45.3-.85-8.7-.38-17.4 2.09-25.8 1.4-5.24 6.78-9 11.88-10.05ZM428.25 466.75c3.63 2.23 5.82 6.6 7.78 10.25 5.54 10.8 7 23.18 4.95 35.07a55.32 55.32 0 0 1-14.73 28.2 55.06 55.06 0 0 1-72.17 5.63 54.77 54.77 0 0 1-21.34-34.89c-.57-3.68-1.52-7.6.15-11.13a12.41 12.41 0 0 1 10.11-7.6c4.94-.59 9.87-1.18 14.78-2 18.38-3.3 35.26-11.25 50.36-22.12 5.88-5.11 13.54-5.46 20.11-1.41Z" fill="#000"/><path d="M513.41 467.65c12.21 5.03 25.5 7.97 38.57 9.71 15.64 2.02 31.39 2.59 47.04.31 3.87-.56 8.11-1.82 12-1.53 2.42.08 4.34 2.67 4.81 4.87a59.18 59.18 0 0 1-5.45 34.37 59.08 59.08 0 0 1-31.6 29.27 58.37 58.37 0 0 1-33.76 3.03 59.62 59.62 0 0 1-40.59-30.1c-6.9-12.96-9.37-29-5.07-43.17 1.67-6.19 8-9.93 14.05-6.76ZM427.77 474.23a51.2 51.2 0 0 1 8.4 23.72c1.23 16.4-6.14 32.97-19.26 42.91a50.17 50.17 0 0 1-30.92 10.3 50.1 50.1 0 0 1-31.68-12.48 49.18 49.18 0 0 1-16.54-33.7c-.47-3.2 2.13-6.47 5.26-6.96 3.24-.67 6.63-.78 9.92-1.18 18.5-2.26 36.6-9.6 52.19-19.69 3.1-1.92 5.86-4.31 8.97-6.18 4.4-2.3 10.95-1.13 13.66 3.26Z" fill="#fff"/><path d="M533.54 496.92c12.3-1.1 23.89 8.53 24.08 21.08.84 11.05-7.56 21.22-18.45 22.83-11.9 2.14-23.93-6.81-25.4-18.8-1.93-12.29 7.5-23.97 19.77-25.1ZM400.49 505.5c5.96-1.31 12.63.86 17.06 4.96a19.5 19.5 0 0 1 3.72 23.81c-4.15 7.79-13.62 11.6-22.08 9.37-8.34-2.18-14.54-9.95-14.42-18.64-.3-9.44 6.57-17.6 15.72-19.5Z" fill="#000"/></g><g transform="translate(-279 -322)"><path d="M456.01 380.37c2.26-.07 2.85 1.7 2.65 3.64-.5 4.68-.77 9.78-2.32 14.23-1.33.39-2.66.58-4.03.82-1.12-4.8 0-10.22.7-15.09.37-1.71.78-3.82 3-3.6ZM476.79 386.65c.03 3.21-.36 6.36-.67 9.55 41.69.52 83.32.38 125 .75 2.14.04 3.97.86 5.9 1.64-.6 1.48-.22 3.83-2.24 4.1-8.05 1.3-16.58.5-24.74.87-17.35.62-34.7 1-52.06 1.53-17.03.2-34 1.25-51.05 1.42-3.3.39-6.05-2.72-7.2-5.47.02-4.5 1.02-9.15 2.06-13.5 1.28-2.48 2.83-1.67 5-.9ZM439.84 392.18c-.1 4.87-.05 10.81-2.28 15.24-3.22 1.5-7.12 1.79-10.59 2.47-25.65 4.69-51.32 9.34-76.96 14.08-4.24.69-8.7 2.15-13 2.04-2.62-.48-3.32-3.75-.86-5 3.2-1.42 6.95-1.75 10.33-2.59 29.1-6.7 58.15-13.6 87.24-20.32.4-1.91.8-3.81 1.27-5.7 1.61-.21 3.23-.24 4.85-.23Z" fill="#000"/></g><g transform="translate(-279 -322)"><path d="M525.03 563.67c.41.78.8 1.57 1.14 2.37.47 2.66-1.95 3.31-3.8 4.34-4 1.77-8.06 3.4-12.13 4.98-17.66 6.32-35.39 11.11-54.24 11.94-6.5.5-12.94.62-19.44.04-4.9-.57-10.15-.63-14.87-2.03-2.35-.88-2.73-3.93-.4-5.07 2.68-.12 5.48.83 8.18 1.02 7.2.89 14.3.61 21.54.61 22.5-.76 45.02-6.79 65.7-15.48 2.76-1.19 5.22-2.6 8.32-2.72Z" fill="#000"/></g><g transform="translate(-279 -322)"></g></g></svg>