<?xml version="1.0" encoding="UTF-8"?>
<svg version="1.1" xmlns="http://www.w3.org/2000/svg" width="256" height="256">
<path d="M0 0 C84.48 0 168.96 0 256 0 C256 84.48 256 168.96 256 256 C171.52 256 87.04 256 0 256 C0 171.52 0 87.04 0 0 Z " fill="#EBAC7F" transform="translate(0,0)"/>
<path d="M0 0 C1.00654973 1.03659599 1.9887306 2.09777057 2.9375 3.1875 C6.15096929 6.71313488 9.94166741 7.3198212 14.47265625 8.34765625 C17 9 17 9 19.5 10.625 C23.09527442 12.60240093 26.61988354 12.56154426 30.671875 12.7890625 C33 13 33 13 34 14 C34.125 17 34.125 17 34 20 C33 21 33 21 29.9375 21.0625 C28.968125 21.041875 27.99875 21.02125 27 21 C27.02320313 21.60585937 27.04640625 22.21171875 27.0703125 22.8359375 C27.43559679 39.79556537 21.46606252 54.29458843 10.26953125 66.95703125 C0.09728978 76.90471993 -13.40113155 81.30129216 -27.27392578 81.31469727 C-41.67977772 81.05586365 -53.07594192 74.92203604 -63.375 65.125 C-67.54658459 60.7491198 -70.52393559 56.49739931 -73 51 C-73.64388672 49.60974609 -73.64388672 49.60974609 -74.30078125 48.19140625 C-77.34531685 41.28507033 -79.39336403 34.36701369 -81 27 C-83.31 26.67 -85.62 26.34 -88 26 C-90.3677977 29.55169656 -90.28474071 31.34541766 -90.4375 35.5625 C-91.36966827 50.69469828 -97.57963861 63.81282317 -109 74 C-112.52874024 76.35249349 -116.13922333 78.25449393 -120 80 C-121.09441406 80.54011719 -122.18882813 81.08023438 -123.31640625 81.63671875 C-127.53408106 83.19766097 -130.86793392 83.46289683 -135.3125 83.375 C-136.06088135 83.36412354 -136.8092627 83.35324707 -137.58032227 83.34204102 C-149.08324266 83.01210554 -157.21374361 79.16519275 -165.75 71.41015625 C-173.10352295 63.57788832 -176.52879466 54.05031074 -177.578125 43.51953125 C-177.71734375 42.68808594 -177.8565625 41.85664062 -178 41 C-178.66 40.67 -179.32 40.34 -180 40 C-180.3125 37.6953125 -180.3125 37.6953125 -180 35 C-177.875 33.3671875 -177.875 33.3671875 -175 31.875 C-169.36850422 28.57552106 -166.4367347 24.94017546 -162.828125 19.5859375 C-158.21705698 13.06344385 -151.42751049 8.33669267 -143.63671875 6.41796875 C-133.5165524 4.81373497 -124.93648367 5.85319995 -116 11 C-113.76601867 12.72929452 -111.7147156 14.54342762 -109.6640625 16.484375 C-106.47496403 19.38899989 -103.84970737 19.93705871 -99.625 20.25 C-96.03189748 20.14477377 -96.03189748 20.14477377 -92.87109375 19.01171875 C-87.66115146 17.46061451 -82.33539813 17.61008081 -76.93945312 17.52148438 C-71.93137806 17.35735082 -68.26993311 16.89497681 -64 14 C-61.94965004 11.5629638 -61.94965004 11.5629638 -60.25 8.75 C-53.97130779 -0.3032762 -44.71346772 -6.03060399 -34.0625 -8.75 C-21.22097824 -9.79828749 -10.56860608 -7.78541444 0 0 Z " fill="#0B0907" transform="translate(204,74)"/>
<path d="M0 0 C2.67227776 5.34455553 1.52088421 12.78941824 0.19921875 18.3984375 C-3.26973469 28.43575296 -9.52443385 36.82237273 -18.921875 42.0390625 C-29.20060927 46.79201105 -40.69101996 47.9395305 -51.5234375 44.1640625 C-63.04194972 38.7499984 -69.86382121 30.35272607 -74.3203125 18.640625 C-75.48703303 14.10784869 -75.31758083 9.64020886 -75 5 C-73.35 5 -71.7 5 -70 5 C-69.78085938 5.67546875 -69.56171875 6.3509375 -69.3359375 7.046875 C-67.83716256 11.2629411 -66.59314649 14.39238652 -63.4375 17.625 C-58.545208 19.5819168 -54.19797459 19.76577304 -49 19 C-44.52336873 16.84162421 -42.01059523 14.55029447 -40 10 C-39.28076792 6.30476048 -39.28076792 6.30476048 -39 3 C-35.83270007 1.94423336 -33.19033532 1.70105417 -29.86328125 1.46484375 C-28.03700195 1.33432617 -28.03700195 1.33432617 -26.17382812 1.20117188 C-24.2624707 1.0706543 -24.2624707 1.0706543 -22.3125 0.9375 C-21.05759766 0.84662109 -19.80269531 0.75574219 -18.50976562 0.66210938 C-12.32488992 0.22894009 -6.20001649 -0.11698144 0 0 Z " fill="#FBFBFB" transform="translate(215,99)"/>
<path d="M0 0 C0.99 0 1.98 0 3 0 C3.61240144 10.96879023 3.52836012 19.06271316 -3.609375 28.01953125 C-9.15280595 34.05881956 -15.96900765 37.67781822 -24.171875 38.203125 C-34.68652296 38.34087148 -42.64517411 37.08474579 -50.5625 29.50390625 C-55.9840125 23.63511897 -59.22716222 17.52207454 -59.25 9.4375 C-59.18691823 7.95733137 -59.11103224 6.4773457 -59 5 C-49.31786829 1.77262276 -38.09651426 2.89347171 -28 3 C-27.76925781 3.60328125 -27.53851563 4.2065625 -27.30078125 4.828125 C-24.59850531 11.61319385 -24.59850531 11.61319385 -19 16 C-13.90343781 16.81101073 -10.14069505 16.57034752 -5.5 14.25 C-0.7644523 9.98800707 -0.61294903 6.12949027 0 0 Z " fill="#FBFBFB" transform="translate(97,108)"/>
<path d="M0 0 C1.4909505 1.89954918 1.93301223 3.34740844 2.33984375 5.70703125 C-46.71639671 11.08776241 -46.71639671 11.08776241 -70.66015625 10.70703125 C-70.5234375 8.8359375 -70.5234375 8.8359375 -69.66015625 6.70703125 C-67.140625 5.546875 -67.140625 5.546875 -63.84765625 4.64453125 C-62.66171875 4.31582031 -61.47578125 3.98710938 -60.25390625 3.6484375 C-59.06796875 3.33777344 -57.88203125 3.02710937 -56.66015625 2.70703125 C-55.68046875 2.42730469 -54.70078125 2.14757812 -53.69140625 1.859375 C-41.98757313 -1.33988708 -10.77830306 -8.39439603 0 0 Z " fill="#E2A67A" transform="translate(211.66015625,89.29296875)"/>
<path d="M0 0 C1.98 0 3.96 0 6 0 C8.9875506 5.97510119 6.88328672 14.14900523 5.0234375 20.21484375 C-0.35430943 34.84970467 -10.01130806 44.23558326 -23.8359375 50.7578125 C-33.82413882 54.67910635 -47.6722314 54.881792 -57.625 50.875 C-59.44488571 49.97140263 -61.2398062 49.01498277 -63 48 C-63.81855469 47.53078125 -64.63710937 47.0615625 -65.48046875 46.578125 C-76.22254542 39.88456969 -83.82149631 30.43727817 -87.54296875 18.25 C-88.31443964 14.45198947 -88.18396243 10.86321105 -88 7 C-86.35 7 -84.7 7 -83 7 C-82.90203125 7.73863281 -82.8040625 8.47726563 -82.703125 9.23828125 C-80.75078419 22.48390382 -77.1868837 33.41327993 -66.421875 42.07421875 C-56.05699533 49.1371439 -44.78525966 51.74477141 -32.37109375 49.53125 C-22.09928623 46.83068089 -12.00981392 40.80388639 -6.53125 31.5078125 C-5.26765886 29.03205543 -4.09628912 26.55390199 -3 24 C-2.63777344 23.27683594 -2.27554688 22.55367187 -1.90234375 21.80859375 C-0.56558349 17.64785509 -0.53056334 13.53355078 -0.375 9.1875 C-0.33632812 8.30384766 -0.29765625 7.42019531 -0.2578125 6.50976562 C-0.16399216 4.34017028 -0.08092674 2.17011453 0 0 Z " fill="#DEA278" transform="translate(219,98)"/>
<path d="M0 0 C0.928125 0.763125 1.85625 1.52625 2.8125 2.3125 C2.8125 2.6425 2.8125 2.9725 2.8125 3.3125 C2.16514893 3.3218457 1.51779785 3.33119141 0.85083008 3.34082031 C-18.06813595 3.68113149 -36.05379295 5.70676386 -54.1875 11.3125 C-51.12051408 4.3730571 -45.05661333 -0.9340288 -38.16796875 -3.9453125 C-25.10617313 -8.84026549 -11.62845152 -8.01640746 0 0 Z " fill="#E6A97D" transform="translate(200.1875,75.6875)"/>
<path d="M0 0 C0.72930342 15.01149547 -1.8397088 25.34828991 -12 37 C-14.48636824 39.40501468 -17.03042157 41.23546789 -20 43 C-20.7528125 43.4846875 -21.505625 43.969375 -22.28125 44.46875 C-31.41821945 49.54484414 -42.87750041 49.60800124 -52.94140625 47.3359375 C-62.85959996 43.36866002 -70.61206576 34.29996415 -75.203125 24.9296875 C-76.67431187 21.36710754 -77.13786653 18.22209348 -77.125 14.375 C-77.12757812 13.59898438 -77.13015625 12.82296875 -77.1328125 12.0234375 C-77 10 -77 10 -76 8 C-75.34 8 -74.68 8 -74 8 C-73.92523438 8.72703125 -73.85046875 9.4540625 -73.7734375 10.203125 C-72.29091003 21.54009979 -68.51880976 31.10294238 -59.3984375 38.375 C-50.72751838 44.24975954 -42.35028922 45.04381898 -32 44 C-22.37952177 42.14233732 -14.87148343 36.57137616 -9.30078125 28.5546875 C-5.30288197 21.61277642 -4.76648346 15.58486813 -4.5703125 7.66796875 C-4.4765625 5.5546875 -4.4765625 5.5546875 -4 2 C-1 0 -1 0 0 0 Z " fill="#D99F75" transform="translate(108,105)"/>
<path d="M0 0 C0.92401611 -0.00547852 1.84803223 -0.01095703 2.80004883 -0.01660156 C8.03195186 0.03875744 12.42276709 0.60974594 17.375 2.3125 C17.375 3.3025 17.375 4.2925 17.375 5.3125 C7.27176968 7.3636901 -2.87721022 8.05386125 -13.14501953 8.74511719 C-16.01510863 8.93851809 -18.88450409 9.14043348 -21.75390625 9.34375 C-23.59371586 9.47184548 -25.43355857 9.59946662 -27.2734375 9.7265625 C-28.12352386 9.78590973 -28.97361023 9.84525696 -29.84945679 9.90640259 C-34.11766844 10.19180791 -38.34403611 10.37740242 -42.625 10.3125 C-33.58811245 0.05125994 -12.67412856 0.05497161 0 0 Z " fill="#E0A479" transform="translate(80.625,98.6875)"/>
<path d="M0 0 C2.16796875 1.55078125 2.16796875 1.55078125 3.16796875 4.55078125 C2.58418457 4.52983398 2.00040039 4.50888672 1.39892578 4.48730469 C-13.7604736 3.69363157 -13.7604736 3.69363157 -27.83203125 8.55078125 C-30.55878715 10.05127311 -31.63841712 10.55078125 -34.83203125 10.55078125 C-36.18403562 6.49476814 -35.35672249 4.50111765 -33.83203125 0.55078125 C-24.10539055 -9.17585945 -11.10653654 -5.68348284 0 0 Z " fill="#080604" transform="translate(162.83203125,45.44921875)"/>
<path d="M0 0 C1.70583785 1.62655243 3.38086227 3.28712272 5 5 C4.32122803 4.98428955 3.64245605 4.9685791 2.94311523 4.95239258 C-10.10801123 4.69059681 -22.3148611 4.60515212 -35 8 C-36.64582643 8.39586204 -38.29165847 8.79170074 -39.9375 9.1875 C-40.948125 9.455625 -41.95875 9.72375 -43 10 C-40.07257246 3.77921647 -33.61733858 -1.08249302 -27.234375 -3.52734375 C-18.15977811 -5.44697001 -7.9781903 -5.06252439 0 0 Z " fill="#E4A77C" transform="translate(86,88)"/>
<path d="M0 0 C2.625 1.625 2.625 1.625 4 4 C4.05457025 5.99925538 4.06024662 8.00090762 4 10 C2.9378125 10.03738281 1.875625 10.07476562 0.78125 10.11328125 C-10.12911889 10.58298844 -17.57009516 12.3732792 -27.1171875 18.01171875 C-29 19 -29 19 -31 19 C-29.89864739 12.88137437 -25.3542351 8.65615631 -20.41796875 5.18359375 C-13.53415254 1.0008943 -8.12829992 -0.9445324 0 0 Z " fill="#070504" transform="translate(90,52)"/>
<path d="M0 0 C-0.12890625 1.84765625 -0.12890625 1.84765625 -1 4 C-3.52734375 5.30859375 -3.52734375 5.30859375 -6.9375 6.4375 C-7.85837402 6.74445801 -7.85837402 6.74445801 -8.79785156 7.05761719 C-10.85806168 7.73069429 -12.92636302 8.36954332 -15 9 C-15.74717285 9.22896973 -16.4943457 9.45793945 -17.26416016 9.69384766 C-34.2585948 14.83120045 -34.2585948 14.83120045 -43 15 C-43.71365723 15.01901367 -44.42731445 15.03802734 -45.16259766 15.05761719 C-47.69176877 15.11909535 -50.22026484 15.1576203 -52.75 15.1875 C-53.56718506 15.20079346 -54.38437012 15.21408691 -55.22631836 15.2277832 C-59.88933372 15.23303811 -63.61306611 14.79015205 -68 13 C-67.67 12.01 -67.34 11.02 -67 10 C-65.89881836 10.02356567 -65.89881836 10.02356567 -64.77539062 10.04760742 C-42.07339627 10.46873866 -21.00705869 0 0 0 Z " fill="#120D09" transform="translate(158,155)"/>
<path d="M0 0 C0.62736434 12.91324937 -0.68583839 22.60729799 -9 33 C-9.66 32.34 -10.32 31.68 -11 31 C-10.65066406 30.39671875 -10.30132812 29.7934375 -9.94140625 29.171875 C-9.48636719 28.37265625 -9.03132813 27.5734375 -8.5625 26.75 C-8.11003906 25.96109375 -7.65757813 25.1721875 -7.19140625 24.359375 C-4.50802883 19.04540791 -4.71510975 13.51157223 -4.5703125 7.66796875 C-4.4765625 5.5546875 -4.4765625 5.5546875 -4 2 C-1 0 -1 0 0 0 Z " fill="#DFA379" transform="translate(108,105)"/>
<path d="M0 0 C3.63 0.66 7.26 1.32 11 2 C11 2.99 11 3.98 11 5 C6.6822542 4.49202991 2.96697886 3.80317221 -1 2 C-0.67 1.34 -0.34 0.68 0 0 Z " fill="#C7926C" transform="translate(161,146)"/>
<path d="M0 0 C-1.36157378 5.29500913 -4.60343955 7.23745533 -9 10 C-9.33 9.01 -9.66 8.02 -10 7 C-8.71372289 5.82739389 -7.42080217 4.6620717 -6.125 3.5 C-5.04605469 2.52546875 -5.04605469 2.52546875 -3.9453125 1.53125 C-2 0 -2 0 0 0 Z " fill="#CB956E" transform="translate(98,137)"/>
<path d="M0 0 C4.75 1.875 4.75 1.875 7 3 C7 3.66 7 4.32 7 5 C5.35 5 3.7 5 2 5 C1.34 3.35 0.68 1.7 0 0 Z " fill="#BC8A66" transform="translate(216,90)"/>
<path d="M0 0 C0.33 0.66 0.66 1.32 1 2 C-1.64 2.33 -4.28 2.66 -7 3 C-7 2.01 -7 1.02 -7 0 C-3.98968256 -0.93423645 -3.13349732 -1.04449911 0 0 Z " fill="#CC956E" transform="translate(191,148)"/>
</svg>
