<?xml version="1.0" encoding="UTF-8"?>
<svg version="1.1" xmlns="http://www.w3.org/2000/svg" width="256" height="256">
<path d="M0 0 C84.48 0 168.96 0 256 0 C256 84.48 256 168.96 256 256 C171.52 256 87.04 256 0 256 C0 171.52 0 87.04 0 0 Z " fill="#9D5521" transform="translate(0,0)"/>
<path d="M0 0 C1.18094238 0.00088623 2.36188477 0.00177246 3.57861328 0.00268555 C13.32155867 0.13409457 23.87324755 0.66069686 32.3671875 5.97265625 C35.23587556 7.61779844 37.28033358 7.83145632 40.5625 8 C45.72751416 8.29001416 45.72751416 8.29001416 46.8125 9.375 C46.9375 12.375 46.9375 12.375 46.8125 15.375 C45.8125 16.375 45.8125 16.375 42.75 16.4375 C41.780625 16.416875 40.81125 16.39625 39.8125 16.375 C39.83570313 16.96925781 39.85890625 17.56351563 39.8828125 18.17578125 C40.25861528 35.43586625 34.47317195 49.42769228 23.08203125 62.3359375 C12.89576378 72.27485631 -0.58071645 76.67628451 -14.46142578 76.68969727 C-28.70486309 76.4337818 -40.02152737 70.37620506 -50.375 60.875 C-60.70694721 49.98545564 -64.77934328 36.67942699 -68.1875 22.375 C-70.4975 22.045 -72.8075 21.715 -75.1875 21.375 C-77.38029527 24.6641929 -77.45465876 26.72187707 -77.66625977 30.58227539 C-78.51523052 44.98076266 -83.61767758 56.89985865 -93.76171875 67.32421875 C-97.85652112 70.78600819 -102.32050668 73.17457063 -107.1875 75.375 C-108.28191406 75.91511719 -109.37632813 76.45523438 -110.50390625 77.01171875 C-114.72158106 78.57266097 -118.05543392 78.83789683 -122.5 78.75 C-123.24838135 78.73912354 -123.9967627 78.72824707 -124.76782227 78.71704102 C-136.27074266 78.38710554 -144.40124361 74.54019275 -152.9375 66.78515625 C-160.29102295 58.95288832 -163.71629466 49.42531074 -164.765625 38.89453125 C-164.90484375 38.06308594 -165.0440625 37.23164062 -165.1875 36.375 C-165.8475 36.045 -166.5075 35.715 -167.1875 35.375 C-167.4921875 33.09375 -167.4921875 33.09375 -167.1875 30.375 C-165.1328125 28.53125 -165.1328125 28.53125 -162.3125 26.875 C-161.30058594 26.28074219 -160.28867188 25.68648437 -159.24609375 25.07421875 C-158.23675781 24.51347656 -157.22742188 23.95273438 -156.1875 23.375 C-155.37410156 22.90707031 -154.56070313 22.43914062 -153.72265625 21.95703125 C-141.69792462 15.45447255 -128.64605044 13.17891287 -115.125 13.1875 C-114.1983252 13.18613037 -113.27165039 13.18476074 -112.31689453 13.18334961 C-105.80017446 13.22916234 -99.70931922 13.90490366 -93.28515625 14.9921875 C-87.48043322 15.70954293 -81.73410702 15.22386901 -76.1875 13.375 C-74.11922824 13.31887604 -72.05076387 13.26603027 -69.98193359 13.23706055 C-61.63013924 13.07028755 -54.81552624 11.9734503 -47.11962891 8.74829102 C-42.27654817 6.7266047 -37.49239002 5.28918623 -32.375 4.125 C-31.71806152 3.97442139 -31.06112305 3.82384277 -30.38427734 3.66870117 C-28.3230324 3.21340508 -26.25679393 2.79213131 -24.1875 2.375 C-22.95253784 2.10792236 -22.95253784 2.10792236 -21.69262695 1.83544922 C-14.4376173 0.36326574 -7.39332024 -0.00999808 0 0 Z " fill="#070402" transform="translate(191.1875,78.625)"/>
<path d="M0 0 C1.64020239 1.27230653 3.26604084 2.56340623 4.875 3.875 C5.74125 4.54144531 6.6075 5.20789063 7.5 5.89453125 C9.60096446 7.64648681 11.16030793 9.23069144 12.75 11.4375 C13.18054688 12.01628906 13.61109375 12.59507813 14.0546875 13.19140625 C14.875 14.875 14.875 14.875 13.875 17.875 C8.81366212 16.25537188 4.02293383 14.24277638 -0.83203125 12.09375 C-8.24949578 9.34849622 -15.25002642 8.55230794 -23.125 8.625 C-23.96289062 8.61726563 -24.80078125 8.60953125 -25.6640625 8.6015625 C-43.80402874 8.65772339 -59.05030491 16.34830098 -71.6796875 28.99609375 C-74.125 30.875 -74.125 30.875 -76.3828125 30.84765625 C-78.125 29.875 -78.125 29.875 -79.125 26.875 C-80.775 29.515 -82.425 32.155 -84.125 34.875 C-88.4025273 32.73623635 -88.72259327 32.38101683 -90.375 28.25 C-90.87773437 27.02410156 -90.87773437 27.02410156 -91.390625 25.7734375 C-91.63296875 25.14695313 -91.8753125 24.52046875 -92.125 23.875 C-92.455 26.845 -92.785 29.815 -93.125 32.875 C-94.445 33.205 -95.765 33.535 -97.125 33.875 C-99.105 30.905 -101.085 27.935 -103.125 24.875 C-103.125 27.515 -103.125 30.155 -103.125 32.875 C-107.70041627 32.19924621 -112.04856941 31.12323621 -116.5 29.875 C-121.7093227 28.46456079 -126.71984736 27.1145901 -132.125 26.875 C-133.24390625 26.81183594 -134.3628125 26.74867187 -135.515625 26.68359375 C-146.43275732 26.34105215 -156.38997006 27.84436614 -165.125 34.875 C-166.4553125 36.23625 -166.4553125 36.23625 -167.8125 37.625 C-170.125 39.875 -170.125 39.875 -173.125 39.875 C-172.71378242 27.3328639 -165.90228378 18.39765268 -157.125 9.875 C-148.96727299 2.60805927 -139.64100364 -1.53848001 -128.66015625 -1.41015625 C-118.08359494 -0.22049681 -110.17531351 5.20028873 -103.640625 13.265625 C-103.14046875 13.79671875 -102.6403125 14.3278125 -102.125 14.875 C-101.465 14.875 -100.805 14.875 -100.125 14.875 C-99.67125 14.215 -99.2175 13.555 -98.75 12.875 C-98.21375 12.215 -97.6775 11.555 -97.125 10.875 C-95.805 10.875 -94.485 10.875 -93.125 10.875 C-92.135 13.845 -91.145 16.815 -90.125 19.875 C-89.465 19.875 -88.805 19.875 -88.125 19.875 C-88.05152344 19.02228516 -88.05152344 19.02228516 -87.9765625 18.15234375 C-87.49356919 13.16418871 -86.64861837 8.64900422 -85.125 3.875 C-83.99384766 3.74544922 -83.99384766 3.74544922 -82.83984375 3.61328125 C-79.57935482 2.72661591 -78.72759867 1.69946206 -76.6875 -0.9375 C-58.95800533 -22.2433305 -19.84922762 -14.30742984 0 0 Z " fill="#020100" transform="translate(203.125,36.125)"/>
<path d="M0 0 C2.7578125 2.36328125 2.7578125 2.36328125 3.484375 5.6484375 C3.10047345 19.92662225 -0.62328338 31.02638626 -11.15234375 41.2109375 C-13.10859324 42.7815608 -15.08607422 44.08211249 -17.2421875 45.36328125 C-17.995 45.84796875 -18.7478125 46.33265625 -19.5234375 46.83203125 C-28.66040695 51.90812539 -40.11968791 51.97128249 -50.18359375 49.69921875 C-60.10178746 45.73194127 -67.85425326 36.6632454 -72.4453125 27.29296875 C-74.7657309 21.67391636 -74.94937264 16.0832241 -73.4296875 10.23828125 C-67.81457289 2.85841633 -57.98881954 0.17998199 -49.2421875 -1.63671875 C-47.85193359 -1.94416016 -47.85193359 -1.94416016 -46.43359375 -2.2578125 C-32.52412723 -4.88053376 -12.96034441 -6.5426317 0 0 Z " fill="#0A0907" transform="translate(105.2421875,102.63671875)"/>
<path d="M0 0 C0.01417969 0.56847656 0.02835938 1.13695313 0.04296875 1.72265625 C0.40661063 7.60972342 1.69782229 11.81378396 6 16 C10.82228631 19.12768679 16.47843933 18.59872345 22 18 C26.52824104 15.85504372 28.96925303 13.56918068 31 9 C31.79726267 6.02154699 32.43866905 3.03118713 33 0 C34.65 0 36.3 0 38 0 C40.77948069 5.55896139 39.54924217 13.62352291 38.19921875 19.46484375 C34.37417241 30.51935913 27.60892019 38.02109673 17.5546875 43.84375 C8.10555265 48.12042266 -2.92130665 48.67981465 -12.8125 45.5 C-22.76998977 41.26213977 -29.29295013 34.63158718 -34 25 C-34.33902344 24.36578125 -34.67804688 23.7315625 -35.02734375 23.078125 C-37.93895652 16.79870207 -37.47797088 9.77431801 -37 3 C-35.39327817 1.39327817 -33.55140267 1.66430048 -31.328125 1.46484375 C-30.35883057 1.3776709 -29.38953613 1.29049805 -28.39086914 1.20068359 C-27.35438232 1.11383301 -26.31789551 1.02698242 -25.25 0.9375 C-24.2077124 0.84807129 -23.1654248 0.75864258 -22.09155273 0.66650391 C-14.70331643 0.06378088 -7.41390135 -0.25614247 0 0 Z " fill="#FBFBFB" transform="translate(177,98)"/>
<path d="M0 0 C1.32 0.33 2.64 0.66 4 1 C6.23715658 9.94862633 4.96193525 17.73623157 1 26 C-4.39632441 33.73932578 -10.10263986 38.03421329 -19 41 C-21.41440173 41.12185361 -23.83255526 41.17546093 -26.25 41.1875 C-28.17585938 41.20876953 -28.17585938 41.20876953 -30.140625 41.23046875 C-39.62144354 40.66430651 -45.31122385 36.77261197 -51.75 30.1875 C-56.24435806 23.82049274 -58.25812921 18.86816073 -58 11 C-48.69393547 8.65439171 -39.63401065 6.41615597 -30 6 C-27 11.75 -27 11.75 -27 14 C-26.071875 14.4640625 -26.071875 14.4640625 -25.125 14.9375 C-23.75 15.625 -22.375 16.3125 -21 17 C-15.11488087 17.55040683 -9.91155424 17.6251948 -5 14 C-1.65758585 9.30255309 -0.46536741 5.70075081 0 0 Z " fill="#FBFBFB" transform="translate(96,105)"/>
<path d="M0 0 C3.44097675 4.587969 2.66774852 10.14216329 2.0625 15.5625 C-0.17933787 28.90327288 -7.11914412 40.37229552 -17.9375 48.5625 C-29.95898919 56.25073804 -41.90906582 57.93661726 -55.9375 56.5625 C-60.33297696 55.45527888 -64.01991628 53.82150124 -67.9375 51.5625 C-68.75605469 51.09328125 -69.57460937 50.6240625 -70.41796875 50.140625 C-81.0424432 43.52034946 -88.77547471 34.08003265 -92.48046875 22.01171875 C-93.37310064 17.22812734 -93.15871849 12.40472702 -92.9375 7.5625 C-90.9575 6.5725 -88.9775 5.5825 -86.9375 4.5625 C-86.99550781 5.48289062 -87.05351562 6.40328125 -87.11328125 7.3515625 C-87.57663666 20.35199132 -84.92237053 31.41208841 -76.08984375 41.4453125 C-67.82120736 49.57888949 -57.35180892 53.65701593 -45.75 54 C-33.62379679 53.50602852 -22.78406441 48.34881395 -14.46875 39.484375 C-7.79693179 31.11056235 -5.60590459 22.83904871 -5.75 12.3125 C-5.75064453 11.40242188 -5.75128906 10.49234375 -5.75195312 9.5546875 C-5.61909396 4.90283051 -5.61909396 4.90283051 -6.9375 0.5625 C-13.82022295 0.53692186 -20.70293341 0.51953838 -27.58569336 0.50756836 C-29.92196104 0.50257255 -32.25822565 0.49577363 -34.59448242 0.48706055 C-51.03539426 0.34196417 -51.03539426 0.34196417 -67.43359375 1.33984375 C-71.59762445 1.71012417 -75.76116251 1.64734659 -79.9375 1.5625 C-76.53233003 -0.70761331 -73.29114543 -1.50699784 -69.375 -2.4375 C-68.65554199 -2.61192627 -67.93608398 -2.78635254 -67.19482422 -2.96606445 C-47.81422483 -7.6187134 -16.75542648 -13.90343899 0 0 Z " fill="#93501F" transform="translate(223.9375,94.4375)"/>
<path d="M0 0 C0.94786377 -0.00926514 1.89572754 -0.01853027 2.87231445 -0.02807617 C7.83364549 -0.00560278 11.91353829 0.29417638 16.5625 2.25 C16.5625 2.58 16.5625 2.91 16.5625 3.25 C15.59763672 3.40557373 14.63277344 3.56114746 13.63867188 3.72143555 C-10.02763953 7.52857356 -10.02763953 7.52857356 -33.5625 12.0625 C-34.54927734 12.2689917 -35.53605469 12.4754834 -36.55273438 12.68823242 C-41.12321893 13.59111059 -41.12321893 13.59111059 -45.4375 15.25 C-46.20493438 23.88363678 -42.89326448 32.58184341 -37.4375 39.25 C-30.54126075 46.53114562 -23.56422945 50.30161375 -13.43359375 50.66967773 C-1.77239482 50.76765972 5.69525494 47.56343498 14.2578125 39.69140625 C21.89625389 31.68831564 23.01141074 22.2529732 22.80078125 11.6328125 C22.59701098 8.7399427 22.22159648 6.0685752 21.5625 3.25 C26.4375 5.125 26.4375 5.125 27.5625 6.25 C28.65110078 19.91997046 26.19832824 29.79502808 17.69140625 40.80859375 C14.63425165 44.31450499 11.55311155 46.87876705 7.5625 49.25 C6.8096875 49.7346875 6.056875 50.219375 5.28125 50.71875 C-3.85571945 55.79484414 -15.31500041 55.85800124 -25.37890625 53.5859375 C-35.29709996 49.61866002 -43.04956576 40.54996415 -47.640625 31.1796875 C-49.9610434 25.56063511 -50.14468514 19.96994285 -48.625 14.125 C-43.00988539 6.74513508 -33.18413204 4.06670074 -24.4375 2.25 C-23.04724609 1.94255859 -23.04724609 1.94255859 -21.62890625 1.62890625 C-14.42979225 0.27146603 -7.30420457 0.04500249 0 0 Z " fill="#945120" transform="translate(80.4375,98.75)"/>
<path d="M0 0 C-0.12890625 1.84765625 -0.12890625 1.84765625 -1 4 C-3.52734375 5.30859375 -3.52734375 5.30859375 -6.9375 6.4375 C-7.85837402 6.74445801 -7.85837402 6.74445801 -8.79785156 7.05761719 C-10.85806168 7.73069429 -12.92636302 8.36954332 -15 9 C-15.74717285 9.22896973 -16.4943457 9.45793945 -17.26416016 9.69384766 C-34.2585948 14.83120045 -34.2585948 14.83120045 -43 15 C-43.71365723 15.01901367 -44.42731445 15.03802734 -45.16259766 15.05761719 C-47.69176877 15.11909535 -50.22026484 15.1576203 -52.75 15.1875 C-53.56718506 15.20079346 -54.38437012 15.21408691 -55.22631836 15.2277832 C-59.88933372 15.23303811 -63.61306611 14.79015205 -68 13 C-67.67 12.01 -67.34 11.02 -67 10 C-65.89881836 10.02356567 -65.89881836 10.02356567 -64.77539062 10.04760742 C-42.07339627 10.46873866 -21.00705869 0 0 0 Z " fill="#0C0602" transform="translate(158,155)"/>
<path d="M0 0 C4.38332057 0.82187261 8.67940177 1.90154282 13 3 C13 3.99 13 4.98 13 6 C7.72250715 5.46148032 3.74354436 4.22656164 -1 2 C-0.67 1.34 -0.34 0.68 0 0 Z " fill="#87491D" transform="translate(159,145)"/>
<path d="M0 0 C0.66 0 1.32 0 2 0 C0.63842622 5.29500913 -2.60343955 7.23745533 -7 10 C-7.99 9.34 -8.98 8.68 -10 8 C-8.63875 7.13375 -8.63875 7.13375 -7.25 6.25 C-4.02981424 4.16397832 -4.02981424 4.16397832 -1.75 1.75 C-0.88375 0.88375 -0.88375 0.88375 0 0 Z " fill="#87491D" transform="translate(96,137)"/>
<path d="M0 0 C0.33 0.66 0.66 1.32 1 2 C-1.64 2.33 -4.28 2.66 -7 3 C-7 2.01 -7 1.02 -7 0 C-3.98968256 -0.93423645 -3.13349732 -1.04449911 0 0 Z " fill="#884A1D" transform="translate(191,148)"/>
</svg>
