<?xml version="1.0" encoding="UTF-8"?>
<svg version="1.1" xmlns="http://www.w3.org/2000/svg" width="256" height="256">
<path d="M0 0 C84.48 0 168.96 0 256 0 C256 84.48 256 168.96 256 256 C171.52 256 87.04 256 0 256 C0 171.52 0 87.04 0 0 Z " fill="#9D5521" transform="translate(0,0)"/>
<path d="M0 0 C3.37914215 0.00907928 6.7576809 0.0046669 10.13677406 -0.00714493 C13.39523069 -0.01607465 16.65364874 -0.00984882 19.91210938 -0.00488281 C21.12130035 -0.00893127 22.33049133 -0.01297974 23.57632446 -0.01715088 C25.24614883 -0.0076944 25.24614883 -0.0076944 26.94970703 0.00195312 C28.41689682 0.0043399 28.41689682 0.0043399 29.91372681 0.0067749 C32.37304688 0.26074219 32.37304688 0.26074219 35.37304688 2.26074219 C35.77148438 4.75683594 35.77148438 4.75683594 35.74804688 7.69824219 C35.75578125 8.66632813 35.76351562 9.63441406 35.77148438 10.63183594 C35.37304688 13.26074219 35.37304688 13.26074219 34.14257812 15.09667969 C31.84777314 16.6062865 30.40874098 16.56664193 27.68554688 16.44824219 C26.87730469 16.42117187 26.0690625 16.39410156 25.23632812 16.36621094 C24.62144531 16.33140625 24.0065625 16.29660156 23.37304688 16.26074219 C23.53160156 17.37449219 23.69015625 18.48824219 23.85351562 19.63574219 C25.88122237 36.03027341 25.78822755 54.68689887 16.25585938 68.88964844 C6.74679625 80.8647549 -4.18168501 89.09015282 -19.62695312 91.26074219 C-33.33862236 92.5091029 -46.09513759 90.88723752 -57.34960938 82.29589844 C-69.43643277 71.49446621 -74.00395506 58.21443056 -77.62353516 42.91821289 C-77.85669434 41.94456787 -78.08985352 40.97092285 -78.33007812 39.96777344 C-78.5327832 39.08581299 -78.73548828 38.20385254 -78.94433594 37.29516602 C-79.42561314 35.06736793 -79.42561314 35.06736793 -81.62695312 34.26074219 C-87.04082859 33.62525765 -87.04082859 33.62525765 -91.79492188 35.72558594 C-94.41475078 39.35089289 -94.58076674 42.76361353 -95.06445312 47.13574219 C-96.76874834 59.7408009 -100.40234844 70.64706733 -107.62695312 81.26074219 C-108.22507812 82.16824219 -108.82320313 83.07574219 -109.43945312 84.01074219 C-117.55011432 92.35313656 -127.92918279 96.31795409 -139.43383789 96.68310547 C-150.65723758 96.75446746 -158.44513315 95.19923185 -167.20507812 87.74511719 C-176.16033638 78.55875549 -183.20886779 63.77976925 -183.72460938 50.80371094 C-183.71300781 50.02640625 -183.70140625 49.24910156 -183.68945312 48.44824219 C-183.68042969 47.65804687 -183.67140625 46.86785156 -183.66210938 46.05371094 C-183.65050781 45.46203125 -183.63890625 44.87035156 -183.62695312 44.26074219 C-184.50480469 44.50050781 -184.50480469 44.50050781 -185.40039062 44.74511719 C-188.56282574 45.47747058 -191.3964633 45.50003773 -194.62695312 45.26074219 C-197.30622654 41.24183207 -196.78296561 39.01912296 -196.62695312 34.26074219 C-172.87048187 21.82279912 -135.88046259 8.25201567 -108.74804688 15.43261719 C-103.29676634 17.56092561 -98.2963094 20.67281793 -94.06445312 24.69824219 C-90.77289964 26.80821237 -88.58396284 26.35168638 -84.81054688 25.81542969 C-82.4803696 25.2235063 -80.66822906 24.5343588 -78.62695312 23.26074219 C-77.72814378 21.59628044 -76.82988051 19.93151931 -75.93554688 18.26464844 C-69.39121826 8.24303476 -58.76510837 4.68087222 -47.62695312 2.26074219 C-31.91496039 -0.29322238 -15.86408684 -0.05092176 0 0 Z " fill="#010000" transform="translate(206.626953125,59.7392578125)"/>
<path d="M0 0 C0.66 0 1.32 0 2 0 C1.62349805 6.92184356 -1.32014318 12.15560757 -4.5625 18.1875 C-5.37569702 19.72071899 -5.37569702 19.72071899 -6.20532227 21.28491211 C-10.07856635 28.50007138 -14.13984189 35.39838008 -19 42 C-19.68642578 43.02867187 -19.68642578 43.02867187 -20.38671875 44.078125 C-21.625 45.8125 -21.625 45.8125 -24 48 C-29.31088329 47.89571898 -32.17198046 45.63373942 -35.8125 42.0625 C-36.33094482 41.56814453 -36.84938965 41.07378906 -37.38354492 40.56445312 C-45.28758747 32.93917628 -53.06345863 24.93657524 -58 15 C-58 13.68 -58 12.36 -58 11 C-53.98222804 12.33925732 -53.33691113 14.20920352 -51.0625 17.75 C-47.65205728 22.88940767 -43.94826203 27.54359611 -39.75 32.0625 C-39.25508057 32.5977832 -38.76016113 33.13306641 -38.25024414 33.68457031 C-33.26027364 39.53768678 -33.26027364 39.53768678 -26.4921875 42.17578125 C-22.82147187 40.44398594 -21.18999211 37.53286066 -19.125 34.1875 C-18.69082764 33.50824463 -18.25665527 32.82898926 -17.80932617 32.12915039 C-16.52031386 30.09736588 -15.25629702 28.05213897 -14 26 C-13.35417969 24.95328125 -12.70835937 23.9065625 -12.04296875 22.828125 C-7.61183689 15.4262343 -3.77240769 7.75120851 0 0 Z " fill="#0A0502" transform="translate(152,151)"/>
<path d="M0 0 C2.16796875 1.55078125 2.16796875 1.55078125 3.16796875 4.55078125 C2.60924072 4.5350708 2.0505127 4.51936035 1.47485352 4.50317383 C-1.10650115 4.44003201 -3.68769255 4.40154421 -6.26953125 4.36328125 C-7.14802734 4.33814453 -8.02652344 4.31300781 -8.93164062 4.28710938 C-16.51780726 4.20312967 -22.44937531 5.85945328 -29.20703125 9.23828125 C-31.83203125 10.55078125 -31.83203125 10.55078125 -34.83203125 10.55078125 C-36.18403562 6.49476814 -35.35672249 4.50111765 -33.83203125 0.55078125 C-24.10539055 -9.17585945 -11.10653654 -5.68348284 0 0 Z " fill="#060301" transform="translate(162.83203125,45.44921875)"/>
<path d="M0 0 C2.625 1.625 2.625 1.625 4 4 C4.05457025 5.99925538 4.06024662 8.00090762 4 10 C2.9378125 10.03738281 1.875625 10.07476562 0.78125 10.11328125 C-10.12911889 10.58298844 -17.57009516 12.3732792 -27.1171875 18.01171875 C-29 19 -29 19 -31 19 C-29.89864739 12.88137437 -25.3542351 8.65615631 -20.41796875 5.18359375 C-13.53415254 1.0008943 -8.12829992 -0.9445324 0 0 Z " fill="#050201" transform="translate(90,52)"/>
<path d="M0 0 C2.5797208 2.0256868 2.94932635 2.65252356 3.4375 6 C3 9 3 9 1.5625 10.875 C-2.2922041 12.56730912 -5.85754289 12.54726039 -10 12 C-12.5625 10.875 -12.5625 10.875 -14 9 C-14.5625 6.0625 -14.5625 6.0625 -14 3 C-10.15815903 -1.8332838 -5.56093149 -1.73909281 0 0 Z " fill="#F9F9F9" transform="translate(214,81)"/>
<path d="M0 0 C1.19109375 0.00773437 1.19109375 0.00773437 2.40625 0.015625 C3.2003125 0.01046875 3.994375 0.0053125 4.8125 0 C6.90625 0.265625 6.90625 0.265625 8.90625 2.265625 C9.28125 4.703125 9.28125 4.703125 8.90625 7.265625 C6.63358157 9.8005244 5.22950124 10.22604322 1.84375 10.640625 C-1.09375 10.265625 -1.09375 10.265625 -2.96875 9.078125 C-4.47707602 6.64804419 -4.45398622 5.07546748 -4.09375 2.265625 C-2.09375 0.265625 -2.09375 0.265625 0 0 Z " fill="#F6F6F6" transform="translate(82.09375,93.734375)"/>
</svg>
