<svg xmlns="http://www.w3.org/2000/svg" viewBox="0 0 400 400" fill="none" shape-rendering="auto"><metadata xmlns:rdf="http://www.w3.org/1999/02/22-rdf-syntax-ns#" xmlns:xsi="http://www.w3.org/2001/XMLSchema-instance" xmlns:dc="http://purl.org/dc/elements/1.1/" xmlns:dcterms="http://purl.org/dc/terms/"><rdf:RDF><rdf:Description><dc:title>Adventurer Neutral</dc:title><dc:creator>Lisa Wischofsky</dc:creator><dc:source xsi:type="dcterms:URI">https://www.figma.com/community/file/1184595184137881796</dc:source><dcterms:license xsi:type="dcterms:URI">https://creativecommons.org/licenses/by/4.0/</dcterms:license><dc:rights>Remix of „Adventurer Neutral” (https://www.figma.com/community/file/1184595184137881796) by „Lisa Wischofsky”, licensed under „CC BY 4.0” (https://creativecommons.org/licenses/by/4.0/)</dc:rights></rdf:Description></rdf:RDF></metadata><mask id="viewboxMask"><rect width="400" height="400" rx="0" ry="0" x="0" y="0" fill="#fff" /></mask><g mask="url(#viewboxMask)"><rect fill="#ecad80" width="400" height="400" x="0" y="0" /><g transform="translate(-279 -322)"><path d="M587.37 431.61a65.1 65.1 0 0 1 27.94 28.7c5.58-3.44 11.26-6.7 16.83-10.18 1.56-.93 3.14-1.94 4.89-2.46 1.93.56 2.77 1.31 2.72 3.44-.47 1.3-1.75 2-2.83 2.76-6.46 3.95-13.07 7.67-19.41 11.81 6.07 14.16 5.97 31.18.8 45.61a65.5 65.5 0 0 1-29.9 35.15 65.13 65.13 0 0 1-43.58 7 65.15 65.15 0 0 1-43.5-29.87 63.26 63.26 0 0 1-9.64-33.57 64.44 64.44 0 0 1 16.82-44.5c9.47-10.43 22.53-17.96 36.46-20.3a65.09 65.09 0 0 1 42.4 6.41Z" fill="#000"/><path d="M549.2 430.27c14.66-1.79 29.3 1.6 41.46 10.02a59.1 59.1 0 0 1 23.46 32.72 59.16 59.16 0 0 1-3.06 40.93c-6.2 13.86-18.05 25.26-32.25 30.69a57.97 57.97 0 0 1-31.8 3.4 59.6 59.6 0 0 1-40.36-26.66 61.47 61.47 0 0 1-9.37-29.35 60.43 60.43 0 0 1 13.41-40.34 59.53 59.53 0 0 1 38.51-21.41Z" fill="#fff"/><path d="M414.7 454.33a54.92 54.92 0 0 1 24.53 30.46c2.68 8.02 3.17 16.86 2.07 25.2a54.85 54.85 0 0 1-61.29 46.3c-15.79-1.8-30.36-10.98-39.03-24.27-5.54-8.33-8.47-18.05-9.1-28-.32-7.07 1.17-13.62 2.92-20.39a238.5 238.5 0 0 1-12.8-8.6c-1.7-1.23-1.84-2.14-1.54-4.17 1.3-1.26 2.74-1.6 4.35-.65 4.2 2.57 8.15 5.53 12.25 8.24 6.7-14.02 19.04-24.86 33.97-29.29a55.12 55.12 0 0 1 43.66 5.17Z" fill="#000"/><path d="M378.2 453.3c18.68-3.52 38.38 4.7 49.14 20.33 7.5 10.77 10.85 24.96 7.88 37.84a48.94 48.94 0 0 1-14.57 26.2A49.55 49.55 0 0 1 391 550.94c-20.13 1.85-40.14-9.82-48.62-28.14a49.3 49.3 0 0 1 35.82-69.5Z" fill="#fff"/><path d="M526.47 467.49c12-2.85 24.87 4.22 29.35 15.63a26.1 26.1 0 0 1-.08 18.72 25.64 25.64 0 0 1-41.14 9.56 25.7 25.7 0 0 1-6.76-27.6 25.54 25.54 0 0 1 18.63-16.31ZM398.22 478.36a23.17 23.17 0 0 1 24.44 11c3.46 5.59 3.67 12.26 2.25 18.53a23.78 23.78 0 0 1-15.87 15.27c-7.51 2.4-16.26.06-21.98-5.24-7.35-6.8-9.5-18-5.05-27a23 23 0 0 1 16.21-12.56Z" fill="#000"/></g><g transform="translate(-279 -322)"><path d="M523.24 384.36c6.17-.42 13.1-.61 18.45 2.95 3.68 2.44 5.4 6.35 4.48 10.74-1.55 6.16-6.62 10.92-11.61 14.5a67.57 67.57 0 0 1-30.57 11.53c-5.61.53-12.5.43-17.47-2.55-3.63-2.13-5.9-6.12-5.2-10.36 1.02-5.75 5.5-10.5 9.94-13.96 9.19-7.03 20.55-11.34 31.98-12.85ZM392.22 401.23c9.1-.36 18.3.5 26.3 5.24 3.86 2.26 7.35 5.89 7.9 10.49.34 4.21-1.96 7.8-5.19 10.27-4.52 3.55-9.87 5-15.43 6-9.95 1-20.55.31-29.48-4.6-3.87-2.28-7.88-5.84-8.47-10.56-.73-4.27 2.02-8.47 5.39-10.84 5.4-3.87 12.43-5.69 18.98-6Z" fill="#000"/></g><g transform="translate(-279 -322)"><path d="M517.87 557.3c2.33.2 3.18 2.72 2.32 4.67-1.4 3.57-3.16 7-4.64 10.53-8.44 19.32-19.56 37.08-31.84 54.17-1.4 1.83-2.87 3.96-4.81 5.27-2.97.78-6.1.75-8.65-1.18a129.37 129.37 0 0 1-24.3-22.74c-7.03-7.83-13.5-16.1-18.86-25.17-1.05-2.12-2.54-4.48-1.19-6.81 1-1.56 3.22-2 4.86-2.55 11.13-3.1 22.19-6.48 33.39-9.29a235.06 235.06 0 0 1 35.86-5.71c5.9-.54 11.94-1.42 17.86-1.2Z" fill="#000"/><path d="M513.81 563.01c-8.96 21.23-21 40.76-34.34 59.5-.92 1.13-2.13 2.82-3.66 3.08-2.18.55-3.7-.86-5.38-2-8.5-6.52-15.77-14.18-22.74-22.27a137.4 137.4 0 0 1-16.59-22.31c14.95-4 29.9-8.63 45.12-11.4 12.45-2.5 25-3.27 37.59-4.6Z" fill="#8F2E45"/></g><g transform="translate(-279 -322)"><path fill-rule="evenodd" clip-rule="evenodd" d="M589 446.02c12.76.73 25.74 1.84 37.38 7.57 1.16.52 2.25 1.22 3.34 1.9 1.38.9 2.77 1.77 4.29 2.3 2.3.37 4.64.44 7 .52 2.67.09 5.35.18 7.95.7 2.16.77 2.3 2.83 2.42 4.8v1c-.02 2.19-.04 4.24-2.33 5.37-2.21.25-4.46.24-6.7.23h-3.17c1.26 18.16-2.42 36.45-11.5 52.28-9.66 17.1-25.26 30.69-43.86 37.2a78.74 78.74 0 0 1-34.82 4 81.36 81.36 0 0 1-42.57-18.29 88.7 88.7 0 0 1-28.74-44.53c-.9-2.9-1.46-5.9-2.02-8.9-.6-3.25-1.2-6.5-2.24-9.6-1.98-5.44-10.5-8.81-14.51-3.67-3.27 3.72-3.25 8.08-3.22 12.6.01 1.16.02 2.33-.03 3.5-.81 27.02-17.12 53.14-41.27 65.38-14.13 7.32-30.77 9.4-46.2 5.33a62.04 62.04 0 0 1-30.72-19.2c-10.8-12.26-16.55-28.93-16.8-45.17-.5-.12-1-.18-1.48-.24-1.41-.17-2.72-.33-3.35-1.96l-.07-.46c-.32-2.13-.83-5.46 1.42-6.47 1-.5 2.03-.92 3.05-1.33 2.19-.89 4.33-1.76 6.2-3.46 10.62-9.27 24.1-13.95 37.58-17.36a151.97 151.97 0 0 1 68.93-.89c5.82 1.39 12.08 1.59 17.77-.43 7.08-2.38 14.84-3.5 22.28-2.54 5.8.56 11.89.35 17.36-1.87 12.15-4.65 23.96-9.15 36.6-12.3a201.86 201.86 0 0 1 62.03-6Zm-25 12.94c17.65-.96 36.07-.78 53.28 3.73 7.14 1.68 13.37 8.09 14.26 15.47 1.3 7.9.28 15.57-1.36 23.32a80.57 80.57 0 0 1-24.67 39.05c-10.5 9.05-23.72 15.36-37.5 17.2-14.95 2.3-30.74-.6-44.13-7.61-14-7.22-25.74-19.05-33.2-32.89-5.27-10.71-8.3-23.62-6.34-35.5a98.03 98.03 0 0 1 20.17-10.3c18.9-7.2 39.37-10.89 59.48-12.47Zm-134.78 19.81a139.53 139.53 0 0 0-34.7-1.92c-15.93 1.2-31.36 3.69-46.39 9.31-5.22 2.04-10.6 4.52-15.04 7.97-4.12 2.85-5.47 9.18-5.69 13.85.33 8.92 3.64 17.87 8.04 25.57 7.92 13.73 21.5 23.9 37.06 27.1 9.84 2.21 19.97 1.39 29.56-1.56 26.32-8.35 46.38-34.3 46.64-62.1a46.96 46.96 0 0 0-1.45-10c-.29-1.64-1.75-2.49-3.1-3.26l-.58-.34c-4.48-2.24-9.46-3.65-14.35-4.63Z" fill="#000"/></g></g></svg>